<?xml version="1.0" standalone="no"?><!DOCTYPE svg PUBLIC "-//W3C//DTD SVG 1.1//EN" "http://www.w3.org/Graphics/SVG/1.1/DTD/svg11.dtd"><svg t="1577439619668" class="icon" viewBox="0 0 1024 1024" version="1.1" xmlns="http://www.w3.org/2000/svg" p-id="1002" xmlns:xlink="http://www.w3.org/1999/xlink" width="200" height="200"><defs><style type="text/css"></style></defs><path d="M219.428571 0h585.142858a146.285714 146.285714 0 0 1 146.285714 146.285714v731.428572a146.285714 146.285714 0 0 1-146.285714 146.285714H219.428571a146.285714 146.285714 0 0 1-146.285714-146.285714V146.285714a146.285714 146.285714 0 0 1 146.285714-146.285714z m0 73.142857a73.142857 73.142857 0 0 0-73.142857 73.142857v731.428572a73.142857 73.142857 0 0 0 73.142857 73.142857h585.142858a73.142857 73.142857 0 0 0 73.142857-73.142857V146.285714a73.142857 73.142857 0 0 0-73.142857-73.142857H219.428571z m73.142858 256h438.857142a36.571429 36.571429 0 1 1 0 73.142857H292.571429a36.571429 36.571429 0 0 1 0-73.142857z m0 146.285714h438.857142a36.571429 36.571429 0 1 1 0 73.142858H292.571429a36.571429 36.571429 0 0 1 0-73.142858z m0 146.285715h292.571428a36.571429 36.571429 0 0 1 0 73.142857H292.571429a36.571429 36.571429 0 0 1 0-73.142857z" fill="#ffffff" p-id="1003"></path></svg>