<?xml version="1.0" standalone="no"?><!DOCTYPE svg PUBLIC "-//W3C//DTD SVG 1.1//EN" "http://www.w3.org/Graphics/SVG/1.1/DTD/svg11.dtd"><svg t="1577245752252" class="icon" viewBox="0 0 1024 1024" version="1.1" xmlns="http://www.w3.org/2000/svg" p-id="1171" xmlns:xlink="http://www.w3.org/1999/xlink" width="200" height="200"><defs><style type="text/css"></style></defs><path d="M503.21408 204.8c-87.07072 0-165.46816 36.33152-221.36832 94.53568L281.81504 204.8h-68.22912v176.46592a34.12992 34.12992 0 0 0 34.0992 34.12992l0.03072 0.03072 176.49664-0.03072v-68.1984h-93.72672c43.53024-45.59872 104.73472-74.12736 172.72832-74.12736 131.92192 0 238.92992 106.96704 238.92992 238.92992 0 131.9424-106.99776 238.94016-238.92992 238.94016a238.05952 238.05952 0 0 1-168.92928-70.00064l-48.30208 48.26112C341.58592 784.80384 418.38592 819.2 503.21408 819.2c169.66656 0 307.2-137.53344 307.2-307.2 0.01024-169.66656-137.53344-307.2-307.2-307.2z" p-id="1172"></path></svg>